<?xml version="1.0" encoding="utf-8"?>
<!-- Generator: Adobe Illustrator 17.0.0, SVG Export Plug-In . SVG Version: 6.00 Build 0)  -->
<!DOCTYPE svg PUBLIC "-//W3C//DTD SVG 1.1//EN" "http://www.w3.org/Graphics/SVG/1.1/DTD/svg11.dtd">
<svg version="1.1" id="Layer_1" xmlns="http://www.w3.org/2000/svg" xmlns:xlink="http://www.w3.org/1999/xlink" x="0px" y="0px"
	 width="1200px" height="1200px" viewBox="0 0 1200 1200" enable-background="new 0 0 1200 1200" xml:space="preserve">
<g>
	<path fill="#00B1B9" d="M966.036,499.923c0,248.485-201.433,449.923-449.928,449.923c-248.49,0-449.928-201.438-449.928-449.923
		S267.617,50,516.108,50C764.603,50,966.036,251.438,966.036,499.923z"/>
	<g>
		<defs>
			<path id="SVGID_1_" d="M966.036,499.923c0,248.485-201.433,449.923-449.928,449.923c-248.49,0-449.928-201.438-449.928-449.923
				S267.617,50,516.108,50C764.603,50,966.036,251.438,966.036,499.923z"/>
		</defs>
		<clipPath id="SVGID_2_">
			<use xlink:href="#SVGID_1_"  overflow="visible"/>
		</clipPath>
		<linearGradient id="SVGID_3_" gradientUnits="userSpaceOnUse" x1="1018.0441" y1="920.2628" x2="627.0577" y2="596.3022">
			<stop  offset="0" style="stop-color:#FFFFFF"/>
			<stop  offset="0.0718" style="stop-color:#DFDFDF"/>
			<stop  offset="0.2156" style="stop-color:#A5A5A5"/>
			<stop  offset="0.3593" style="stop-color:#727272"/>
			<stop  offset="0.4998" style="stop-color:#494949"/>
			<stop  offset="0.6362" style="stop-color:#292929"/>
			<stop  offset="0.7674" style="stop-color:#121212"/>
			<stop  offset="0.8912" style="stop-color:#050505"/>
			<stop  offset="1" style="stop-color:#000000"/>
		</linearGradient>
		<polygon opacity="0.5" clip-path="url(#SVGID_2_)" fill="url(#SVGID_3_)" points="517.464,801.482 865.978,1150 
			1029.842,1062.801 1133.821,733.518 910.476,519.613 652.532,261.675 581.334,285.449 515.687,353.171 569.939,410.753 
			586.673,394.512 570.258,424.988 544.455,490.653 565.565,558.656 509.291,593.835 477.857,465.227 475.385,485.004 
			453.136,583.888 		"/>
	</g>
	<g>
		<path fill="#004E6F" d="M613.968,383.58c0,47.617-42.403,86.214-94.703,86.214c-52.3,0-94.702-38.597-94.702-86.214
			c0-47.608,42.403-86.205,94.702-86.205C571.566,297.375,613.968,335.972,613.968,383.58z"/>
		<path fill="#EA5555" d="M637.559,245.973c0,0-52.397-45.174-121.403-45.474c-0.01,0-0.029,0-0.048,0c0,0-0.019,0-0.039,0
			c-68.996,0.3-121.413,45.474-121.413,45.474s-162.241,123.673,10.207,324.782c52.706,61.204,74.771,109.506,82.912,137.202
			c0,0,19.236,48.882,28.294,91.014v0.377c0.02-0.058,0.039-0.107,0.039-0.184c0.02,0.077,0.039,0.126,0.048,0.184v-0.377
			c9.068-42.132,28.284-91.014,28.284-91.014c8.141-27.695,30.206-75.997,82.912-137.202
			C799.802,369.645,637.559,245.973,637.559,245.973z M516.108,426.601c-32.234,0-58.346-26.121-58.346-58.346
			c0-32.234,26.111-58.356,58.346-58.356c32.244,0,58.365,26.121,58.365,58.356C574.473,400.479,548.352,426.601,516.108,426.601z"
			/>
		<path opacity="0.3" fill="#FFFFFF" d="M365.455,299.693c0,0,35.517-65.849,108.009-71.43c0,0-61.793,56.366-66.167,116.072
			C407.296,344.335,361.07,336.523,365.455,299.693z"/>
		<path opacity="0.2" d="M493.984,705.678c0,0,22.123,68.031,22.123,77.283c0,0,14.871-69.026,22.79-75.632
			C538.897,707.329,512.148,728.139,493.984,705.678z"/>
	</g>
</g>
</svg>
